<svg xmlns="http://www.w3.org/2000/svg" width="1000" height="760" viewBox="0 0 1000 760"><rect x="0" y="0" width="1000" height="760" fill="#25292e" stroke="none" /><text x="40" y="54" font-family="Menlo,monospace" font-size="26" fill="#eeeeea" text-anchor="start">UI PIECES</text><text x="40" y="86" font-family="Menlo,monospace" font-size="14" fill="#9ba1a4" text-anchor="start">Flat fills / thin borders / square corners</text><rect x="40.5" y="140.5" width="279" height="43" fill="#25292e" stroke="#52585e" /><text x="180.0" y="168" font-family="Menlo,monospace" font-size="15" fill="#eeeeea" text-anchor="middle">PLAY</text><text x="344" y="168" font-family="Menlo,monospace" font-size="12" fill="#9ba1a4" text-anchor="start">NORMAL</text><rect x="40.5" y="198.5" width="279" height="43" fill="#373d43" stroke="#9ba1a4" /><text x="180.0" y="226" font-family="Menlo,monospace" font-size="15" fill="#eeeeea" text-anchor="middle">PLAY</text><text x="344" y="226" font-family="Menlo,monospace" font-size="12" fill="#9ba1a4" text-anchor="start">HOVER</text><rect x="40.5" y="256.5" width="279" height="43" fill="#eeeeea" stroke="#eeeeea" /><text x="180.0" y="284" font-family="Menlo,monospace" font-size="15" fill="#25292e" text-anchor="middle">PLAY</text><text x="344" y="284" font-family="Menlo,monospace" font-size="12" fill="#9ba1a4" text-anchor="start">FOCUS</text><rect x="40.5" y="314.5" width="279" height="43" fill="#bebfbb" stroke="#bebfbb" /><text x="180.0" y="342" font-family="Menlo,monospace" font-size="15" fill="#25292e" text-anchor="middle">PLAY</text><text x="344" y="342" font-family="Menlo,monospace" font-size="12" fill="#9ba1a4" text-anchor="start">PRESSED</text><rect x="40.5" y="372.5" width="279" height="43" fill="#22262b" stroke="#373d43" /><text x="180.0" y="400" font-family="Menlo,monospace" font-size="15" fill="#666d73" text-anchor="middle">PLAY</text><text x="344" y="400" font-family="Menlo,monospace" font-size="12" fill="#9ba1a4" text-anchor="start">DISABLED</text><text x="580" y="138" font-family="Menlo,monospace" font-size="12" fill="#9ba1a4" text-anchor="start">ICONS</text><rect x="580" y="158" width="40" height="40" fill="#1b1e22" stroke="#52585e" /><g transform="translate(588 166)" color="#eeeeea" fill="none" stroke="currentColor" stroke-width="1.6" stroke-linejoin="miter"><rect x="6" y="5" width="4" height="14" fill="#eeeeea" stroke="none" /><rect x="14" y="5" width="4" height="14" fill="#eeeeea" stroke="none" /></g><rect x="648" y="158" width="40" height="40" fill="#1b1e22" stroke="#52585e" /><g transform="translate(656 166)" color="#eeeeea" fill="none" stroke="currentColor" stroke-width="1.6" stroke-linejoin="miter"><path d="M7 4L20 12 7 20Z" fill="currentColor"/></g><rect x="716" y="158" width="40" height="40" fill="#1b1e22" stroke="#52585e" /><g transform="translate(724 166)" color="#eeeeea" fill="none" stroke="currentColor" stroke-width="1.6" stroke-linejoin="miter"><path d="M3 9H7L12 5V19L7 15H3ZM16 7Q23 12 16 17"/></g><rect x="784" y="158" width="40" height="40" fill="#1b1e22" stroke="#52585e" /><g transform="translate(792 166)" color="#eeeeea" fill="none" stroke="currentColor" stroke-width="1.6" stroke-linejoin="miter"><path d="M3 9H7L12 5V19L7 15H3ZM16 9L22 15M22 9L16 15"/></g><rect x="852" y="158" width="40" height="40" fill="#1b1e22" stroke="#52585e" /><g transform="translate(860 166)" color="#eeeeea" fill="none" stroke="currentColor" stroke-width="1.6" stroke-linejoin="miter"><path d="M11 5L4 12 11 19M4 12H21"/></g><rect x="580" y="222" width="40" height="40" fill="#1b1e22" stroke="#52585e" /><g transform="translate(588 230)" color="#eeeeea" fill="none" stroke="currentColor" stroke-width="1.6" stroke-linejoin="miter"><path d="M6 6L18 18M18 6L6 18"/></g><rect x="648" y="222" width="40" height="40" fill="#1b1e22" stroke="#52585e" /><g transform="translate(656 230)" color="#eeeeea" fill="none" stroke="currentColor" stroke-width="1.6" stroke-linejoin="miter"><path d="M5 9A8 8 0 1 1 5 16M5 3V9H11"/></g><rect x="716" y="222" width="40" height="40" fill="#1b1e22" stroke="#52585e" /><g transform="translate(724 230)" color="#eeeeea" fill="none" stroke="currentColor" stroke-width="1.6" stroke-linejoin="miter"><path d="M3 7H21M3 17H21M8 3V11M16 13V21"/></g><rect x="784" y="222" width="40" height="40" fill="#1b1e22" stroke="#52585e" /><g transform="translate(792 230)" color="#eeeeea" fill="none" stroke="currentColor" stroke-width="1.6" stroke-linejoin="miter"><path d="M3 11L12 3 21 11M6 9V21H18V9M10 21V15H14V21"/></g><text x="580" y="324" font-family="Menlo,monospace" font-size="12" fill="#9ba1a4" text-anchor="start">SLIDER</text><rect x="580" y="353" width="300" height="4" fill="#52585e" stroke="none" /><rect x="580" y="353" width="180.0" height="4" fill="#eeeeea" stroke="none" /><rect x="755.0" y="346" width="10" height="18" fill="#eeeeea" stroke="none" /><text x="580" y="403" font-family="Menlo,monospace" font-size="12" fill="#9ba1a4" text-anchor="start">ON / OFF</text><rect x="580.5" y="422.5" width="43" height="23" fill="#eeeeea" stroke="#52585e" /><rect x="605" y="426" width="15" height="16" fill="#25292e" stroke="none" /><rect x="648.5" y="422.5" width="43" height="23" fill="#1b1e22" stroke="#52585e" /><rect x="652" y="426" width="15" height="16" fill="#9ba1a4" stroke="none" /><text x="40" y="496" font-family="Menlo,monospace" font-size="12" fill="#9ba1a4" text-anchor="start">PANELS &amp; KEYCAPS</text><rect x="40.5" y="518.5" width="239" height="175" fill="#1b1e22" stroke="#52585e" /><text x="160" y="557" font-family="Menlo,monospace" font-size="20" fill="#eeeeea" text-anchor="middle">PAUSED</text><rect x="60.5" y="581.5" width="199" height="43" fill="#eeeeea" stroke="#eeeeea" /><text x="160.0" y="609" font-family="Menlo,monospace" font-size="15" fill="#25292e" text-anchor="middle">RESUME</text><rect x="60.5" y="639.5" width="199" height="43" fill="#25292e" stroke="#52585e" /><text x="160.0" y="667" font-family="Menlo,monospace" font-size="15" fill="#eeeeea" text-anchor="middle">MAIN MENU</text><rect x="314.5" y="518.5" width="209" height="95" fill="#1b1e22" stroke="#52585e" /><text x="333" y="549" font-family="Menlo,monospace" font-size="12" fill="#9ba1a4" text-anchor="start">SCORE</text><text x="333" y="589" font-family="Menlo,monospace" font-size="29" fill="#eeeeea" text-anchor="start">024800</text><rect x="580" y="520" width="44" height="32" fill="#25292e" stroke="#52585e" /><text x="602" y="542" font-family="Menlo,monospace" font-size="14" fill="#eeeeea" text-anchor="middle">←</text><rect x="640" y="520" width="44" height="32" fill="#25292e" stroke="#52585e" /><text x="662" y="542" font-family="Menlo,monospace" font-size="14" fill="#eeeeea" text-anchor="middle">→</text><rect x="700" y="520" width="44" height="32" fill="#25292e" stroke="#52585e" /><text x="722" y="542" font-family="Menlo,monospace" font-size="14" fill="#eeeeea" text-anchor="middle">↑</text><rect x="760" y="520" width="44" height="32" fill="#25292e" stroke="#52585e" /><text x="782" y="542" font-family="Menlo,monospace" font-size="14" fill="#eeeeea" text-anchor="middle">C</text><text x="580" y="594" font-family="Menlo,monospace" font-size="13" fill="#9ba1a4" text-anchor="start">Text stays editable.</text><text x="580" y="619" font-family="Menlo,monospace" font-size="13" fill="#9ba1a4" text-anchor="start">24px icons · 44px buttons</text><text x="580" y="644" font-family="Menlo,monospace" font-size="13" fill="#9ba1a4" text-anchor="start">SVG sources + PNG exports</text></svg>